<svg id="Layer_1" data-name="Layer 1" xmlns="http://www.w3.org/2000/svg" xmlns:xlink="http://www.w3.org/1999/xlink" width="2039.7162" height="583.8977" viewBox="0 0 2039.7162 583.8977">
  <defs>
    <style>
      .cls-1 {
        fill: #fff;
      }

      .cls-2 {
        fill: url(#linear-gradient);
      }

      .cls-3 {
        fill: #111d34;
      }

      .cls-4 {
        fill: #020100;
      }

      .cls-5 {
        fill: url(#linear-gradient-2);
      }
    </style>
    <linearGradient id="linear-gradient" x1="340.6604" y1="501.5827" x2="340.6604" y2="83.5728" gradientUnits="userSpaceOnUse">
      <stop offset="0.3797" stop-color="#fd7c4f"/>
      <stop offset="0.5451" stop-color="#fd8453"/>
      <stop offset="0.7967" stop-color="#fe995d"/>
      <stop offset="0.9764" stop-color="#feac67"/>
    </linearGradient>
    <linearGradient id="linear-gradient-2" x1="340.6605" y1="261.85" x2="340.6605" y2="-29.397" gradientUnits="userSpaceOnUse">
      <stop offset="0.4978" stop-color="#fff" stop-opacity="0"/>
      <stop offset="0.5178" stop-color="#fff" stop-opacity="0.0347"/>
      <stop offset="0.5502" stop-color="#fff" stop-opacity="0.129"/>
      <stop offset="0.5911" stop-color="#fff" stop-opacity="0.2827"/>
      <stop offset="0.6387" stop-color="#fff" stop-opacity="0.496"/>
      <stop offset="0.6886" stop-color="#fff" stop-opacity="0.75"/>
    </linearGradient>
  </defs>
  <rect class="cls-1" width="2039.7162" height="583.8977"/>
  <g>
    <g>
      <path class="cls-2" d="M319.544,357.26l97.5236-48.7617a65.2558,65.2558,0,0,1,58.3676,0l76.4031,38.2014V172.7279a90,90,0,0,0-90-90H219.4826a90,90,0,0,0-90,90l.0015,121.1753Z"/>
      <path class="cls-3" d="M551.8383,346.6993l-76.403-38.2014a65.256,65.256,0,0,0-58.3677,0L319.544,357.26l230.2913,76.7637a90.34,90.34,0,0,0,2.003-18.9394Z"/>
      <path class="cls-4" d="M129.4841,293.9032V415.204a89.72,89.72,0,0,0,26.3985,63.5579l.0283.0276q.75.7481,1.5166,1.4792l.016.0149q.7731.7357,1.5632,1.4536c.0209.0188.0424.0371.0634.0562q.7676.6957,1.5506,1.3745c.0387.0334.0786.0657.1175.0991q.7585.6545,1.5307,1.293c.0572.0471.1159.0925.1732.1394q.7488.6141,1.51,1.2146c.0615.0481.1245.0945.1861.1426q.7592.5928,1.53,1.1713c.0626.0469.1269.0918.19.1385.5157.383,1.0342.7629,1.5582,1.1352.0694.0493.14.0965.21.1455q.7785.55,1.5673,1.0855c.1031.07.2083.136.3117.2053.4966.332.9945.6624,1.4979.9849.1136.0727.23.1421.3437.2143.496.3147.9932.628,1.4957.9329.1243.0754.2512.1472.3759.2222.4955.2976.9919.5939,1.4936.8823.122.07.2464.1364.3687.206.5075.2886,1.016.5755,1.53.8543.1214.0659.2451.1282.3668.1936.5171.2776,1.0351.5534,1.5582.8213.1517.0776.3059.1508.4581.2278.4955.25.9912.4995,1.492.7407.2126.1023.4285.199.642.3.4445.21.8882.4209,1.3367.6235.2207.1.4446.1934.6663.2915.4458.197.8907.3958,1.34.5857.198.0838.399.1619.5978.2444.4764.1973.9523.3955,1.4328.5847.21.083.4238.16.6351.2415.4715.1816.9425.3647,1.4179.5385.2436.0892.49.1719.7349.2588.4473.16.8936.3208,1.3442.4732.24.0813.4838.1562.7251.2353.4578.1507.9147.303,1.3757.4463.2619.0816.5269.156.79.2351.4439.1336.8867.2693,1.3334.3963.2732.0776.5494.1479.8236.2229.44.12.879.2434,1.3217.3571.3073.0791.6177.15.9262.2261.4124.1016.8234.2063,1.2381.302.38.0874.7623.1663,1.1435.2488.3474.0754.6931.1553,1.0421.2268.4.0818.8032.1545,1.2051.231.3337.0634.6658.1316,1.0009.1916.3743.0669.7518.1245,1.1278.1868.3659.06.73.1255,1.0976.1816.37.0567.7437.1043,1.1156.156.3755.0528.7494.11,1.1262.1577.3789.0479.7605.087,1.1408.13.3732.0425.745.09,1.12.1277.4073.0413.8175.073,1.2265.1091.35.03.698.0664,1.049.093.4351.033.873.056,1.31.0831.3278.02.6543.0454.983.0622.6012.03,1.2051.05,1.8093.0686.166.0051.331.0147.4973.0188q1.1577.0292,2.3226.03H461.8384c1.2312,0,2.4549-.0318,3.6741-.0809.1857-.0073.372-.0124.5575-.021q1.7406-.0806,3.4629-.229.3272-.0277.6535-.0581,1.7274-.1589,3.4366-.3791c.1616-.0213.3221-.0457.4834-.0676,1.1591-.1582,2.3126-.334,3.4572-.5359.0455-.0081.0914-.0144.1368-.0227,1.1617-.2066,2.3135-.4412,3.4592-.6919.1814-.04.3635-.0777.5444-.1184q1.6547-.3729,3.2856-.8072.29-.0773.58-.1569,1.653-.45,3.2819-.9585c.1153-.0364.23-.0752.3448-.1121q1.6439-.5241,3.2609-1.1069c.061-.0223.1228-.0428.1837-.0647,1.0888-.3968,2.1655-.8179,3.2341-1.2549.1584-.065.3172-.1287.4751-.1944q1.56-.6481,3.09-1.3535c.153-.07.3053-.1423.4578-.2136q1.5679-.7332,3.105-1.52c.0537-.0276.1065-.0569.16-.0845q1.5677-.8118,3.0988-1.6828c.0525-.03.1057-.0586.1582-.0884q1.5135-.865,2.9877-1.7893c.1216-.076.2435-.1512.3647-.2276q1.4518-.9159,2.8665-1.884c.1-.0686.199-.1382.2988-.2073q2.9751-2.0562,5.7742-4.3388c.0313-.0254.063-.05.0942-.076q1.3739-1.125,2.7-2.3042.1178-.1039.2354-.2087,1.3188-1.1773,2.5915-2.4041c.0453-.0439.09-.0881.1351-.1318q2.643-2.5627,5.0736-5.3333l.0294-.0329q1.2-1.3707,2.3434-2.791c.04-.05.08-.0991.12-.149q1.1469-1.4274,2.2378-2.9013l.0018-.0027a90.0966,90.0966,0,0,0,6.1115-9.4607l.04-.072A89.551,89.551,0,0,0,546.68,445.17l.0064-.0181a89.3347,89.3347,0,0,0,3.1484-11.1245l0-.0022L319.5441,357.2633Z"/>
      <path class="cls-5" d="M461.8384,82.7279H219.4825a90,90,0,0,0-90,90V247.91H551.8384V172.7279A90,90,0,0,0,461.8384,82.7279Z"/>
    </g>
    <g>
      <path d="M754.3137,168.7144v98.02h147.32v74.82h-147.32V494.0953H660.9329V93.8941h249.98v74.82Z"/>
      <path d="M1091.2873,500.4751c-90.48,0-158.9208-56.2607-158.9208-148.48s68.44-149.0606,158.9208-149.0606,158.34,56.84,158.34,149.0606S1181.7678,500.4751,1091.2873,500.4751Zm0-224.4609c-41.1806,0-64.9609,31.9-64.9609,74.24s23.78,74.24,64.9609,74.24c40.6,0,64.96-31.9,64.96-74.24S1131.887,276.0142,1091.2873,276.0142Z"/>
      <path d="M1297.1829,494.0953V93.8941h92.8V494.0953Z"/>
      <path d="M1500.759,175.0943c-31.3193,0-52.7793-19.1406-52.7793-48.1406,0-28.42,21.46-48.14,52.7793-48.14s52.78,19.72,52.78,48.14C1553.5393,155.9537,1532.0793,175.0943,1500.759,175.0943ZM1454.36,494.0953V208.1539h92.8V494.0953Z"/>
      <path d="M1751.8938,500.4751c-90.4805,0-158.9209-56.2607-158.9209-148.48s68.44-149.0606,158.9209-149.0606,158.34,56.84,158.34,149.0606S1842.3743,500.4751,1751.8938,500.4751Zm0-224.4609c-41.1807,0-64.9609,31.9-64.9609,74.24s23.78,74.24,64.9609,74.24c40.6,0,64.96-31.9,64.96-74.24S1792.4934,276.0142,1751.8938,276.0142Z"/>
    </g>
  </g>
</svg>
