<svg id="Layer_1" data-name="Layer 1" xmlns="http://www.w3.org/2000/svg" xmlns:xlink="http://www.w3.org/1999/xlink" width="422.3558" height="422.3558" viewBox="0 0 422.3558 422.3558">
  <defs>
    <style>
      .cls-1 {
        fill: url(#linear-gradient);
      }

      .cls-2 {
        fill: #111d34;
      }

      .cls-3 {
        fill: #020100;
      }

      .cls-4 {
        fill: url(#linear-gradient-2);
      }
    </style>
    <linearGradient id="linear-gradient" x1="211.1779" y1="418.8548" x2="211.1779" y2="0.8449" gradientUnits="userSpaceOnUse">
      <stop offset="0.3797" stop-color="#fd7c4f"/>
      <stop offset="0.5451" stop-color="#fd8453"/>
      <stop offset="0.7967" stop-color="#fe995d"/>
      <stop offset="0.9764" stop-color="#feac67"/>
    </linearGradient>
    <linearGradient id="linear-gradient-2" x1="211.1779" y1="179.1221" x2="211.1779" y2="-112.1249" gradientUnits="userSpaceOnUse">
      <stop offset="0.4978" stop-color="#fff" stop-opacity="0"/>
      <stop offset="0.5178" stop-color="#fff" stop-opacity="0.0347"/>
      <stop offset="0.5502" stop-color="#fff" stop-opacity="0.129"/>
      <stop offset="0.5911" stop-color="#fff" stop-opacity="0.2827"/>
      <stop offset="0.6387" stop-color="#fff" stop-opacity="0.496"/>
      <stop offset="0.6886" stop-color="#fff" stop-opacity="0.75"/>
    </linearGradient>
  </defs>
  <g>
    <path class="cls-1" d="M190.0615,274.5318,287.585,225.77a65.2554,65.2554,0,0,1,58.3677,0l76.403,38.2014V90a90,90,0,0,0-90-90H90A90,90,0,0,0,0,90L.0015,211.1753Z"/>
    <path class="cls-2" d="M422.3557,263.9715,345.9527,225.77a65.256,65.256,0,0,0-58.3677,0l-97.5235,48.7618,230.2913,76.7636a90.34,90.34,0,0,0,2.0029-18.9394Z"/>
    <path class="cls-3" d="M.0015,211.1754V332.4761A89.7194,89.7194,0,0,0,26.4,396.034l.0284.0276q.75.7482,1.5166,1.4792l.0159.0149q.7731.7357,1.5632,1.4536c.021.0188.0425.0371.0634.0562q.7677.6959,1.5506,1.3745c.0388.0335.0787.0657.1176.0991q.7585.6544,1.5306,1.293c.0572.0471.1159.0925.1732.1394q.749.6141,1.51,1.2146c.0614.0481.1245.0945.1861.1426q.7591.5928,1.53,1.1714c.0626.0468.1269.0918.19.1384.5156.383,1.0341.7629,1.5582,1.1352.0694.0494.14.0965.21.1456.519.3664,1.04.73,1.5673,1.0854.1031.07.2083.136.3117.2053.4965.3321.9944.6624,1.4979.9849.1136.0727.23.1421.3436.2143.4961.3147.9933.628,1.4958.9329.1243.0754.2511.1472.3758.2222.4956.2976.9919.594,1.4936.8823.1221.07.2464.1365.3688.2061.5075.2885,1.0159.5754,1.5295.8542.1214.0659.245.1282.3668.1936.5171.2776,1.0351.5535,1.5582.8213.1516.0776.3059.1509.458.2278.4956.25.9913.5,1.492.7407.2126.1023.4286.199.6421.3.4444.2095.8882.4209,1.3366.6235.2208.1.4447.1934.6664.2915.4458.1971.8906.3958,1.34.5857.1981.0838.3991.1619.5979.2444.4763.1973.9522.3955,1.4328.5847.21.083.4238.16.635.2415.4716.1816.9426.3647,1.4179.5386.2436.0891.49.1718.7349.2588.4473.1594.8937.3208,1.3442.4731.24.0813.4839.1562.7252.2354.4578.1506.9146.3029,1.3756.4462.2619.0816.5269.156.79.2351.4439.1336.8866.2693,1.3334.3963.2732.0776.5494.1479.8236.2229.44.12.8789.2434,1.3217.3572.3072.0791.6176.15.9262.226.4124.1016.8234.2063,1.2381.302.3794.0874.7622.1663,1.1435.2488.3474.0755.6931.1553,1.042.2268.4.0818.8032.1546,1.2052.231.3337.0635.6658.1316,1.0008.1916.3743.0669.7519.1245,1.1278.1868.3659.0605.73.1255,1.0977.1816.37.0567.7437.1043,1.1156.156.3754.0528.7493.11,1.1262.1578.3788.0478.76.0869,1.1408.13.3732.0425.745.09,1.12.1277.4074.0413.8176.073,1.2265.1092.35.03.6981.0664,1.0491.093.4351.0329.873.0559,1.31.083.3278.02.6543.0454.9831.0622.6012.03,1.205.05,1.8092.0686.1661.0052.3311.0147.4974.0188q1.1577.0294,2.3225.03H332.3559c1.2312,0,2.4548-.0318,3.674-.0808.1857-.0074.3721-.0125.5576-.021q1.7406-.0806,3.4629-.229.327-.0279.6535-.0581,1.7274-.159,3.4366-.3792c.1615-.0212.322-.0456.4834-.0676,1.1591-.1582,2.3125-.334,3.4572-.5359.0454-.0081.0914-.0144.1368-.0227,1.1616-.2066,2.3134-.4412,3.4592-.6919.1814-.04.3634-.0776.5444-.1184q1.6546-.3728,3.2855-.8071.2905-.0774.58-.157,1.653-.45,3.2819-.9585c.1154-.0364.23-.0752.3448-.1121q1.644-.5239,3.261-1.1069c.061-.0222.1228-.0427.1837-.0647,1.0887-.3967,2.1654-.8179,3.2341-1.2549.1583-.0649.3172-.1287.4751-.1943q1.56-.6483,3.09-1.3535c.153-.07.3052-.1424.4577-.2137q1.5681-.733,3.1051-1.52c.0536-.0276.1065-.0569.16-.0845q1.5675-.8118,3.0987-1.6828c.0525-.03.1058-.0586.1582-.0884q1.5137-.8651,2.9878-1.7893c.1215-.0759.2435-.1511.3647-.2275q1.4518-.9159,2.8665-1.8841c.1-.0686.199-.1382.2987-.2073q2.9753-2.0562,5.7743-4.3388c.0312-.0254.063-.05.0942-.076q1.3739-1.125,2.7-2.3042.1178-.1039.2354-.2087,1.3188-1.1773,2.5916-2.404c.0453-.044.09-.0882.1351-.1319q2.6429-2.5628,5.0736-5.3332l.0293-.033q1.2-1.3707,2.3435-2.791c.04-.05.08-.0991.12-.1489q1.1469-1.4275,2.2378-2.9014l.0019-.0027a90.0958,90.0958,0,0,0,6.1114-9.4607l.04-.072a89.551,89.551,0,0,0,6.2534-13.7964l.0064-.0181a89.347,89.347,0,0,0,3.1484-11.1245l.0005-.0022-230.291-76.7614Z"/>
    <path class="cls-4" d="M332.3558,0H90A90,90,0,0,0,0,90v75.1818H422.3558V90A90,90,0,0,0,332.3558,0Z"/>
  </g>
</svg>
