<svg id="Layer_1" data-name="Layer 1" xmlns="http://www.w3.org/2000/svg" xmlns:xlink="http://www.w3.org/1999/xlink" width="1780.7511" height="426.2696" viewBox="0 0 1780.7511 426.2696">
  <defs>
    <style>
      .cls-1 {
        fill: url(#linear-gradient);
      }

      .cls-2 {
        fill: #111d34;
      }

      .cls-3 {
        fill: #020100;
      }

      .cls-4 {
        fill: url(#linear-gradient-2);
      }
    </style>
    <linearGradient id="linear-gradient" x1="211.1779" y1="422.7686" x2="211.1779" y2="4.7588" gradientUnits="userSpaceOnUse">
      <stop offset="0.3797" stop-color="#fd7c4f"/>
      <stop offset="0.5451" stop-color="#fd8453"/>
      <stop offset="0.7967" stop-color="#fe995d"/>
      <stop offset="0.9764" stop-color="#feac67"/>
    </linearGradient>
    <linearGradient id="linear-gradient-2" x1="211.1779" y1="183.036" x2="211.1779" y2="-108.211" gradientUnits="userSpaceOnUse">
      <stop offset="0.4978" stop-color="#fff" stop-opacity="0"/>
      <stop offset="0.5178" stop-color="#fff" stop-opacity="0.0347"/>
      <stop offset="0.5502" stop-color="#fff" stop-opacity="0.129"/>
      <stop offset="0.5911" stop-color="#fff" stop-opacity="0.2827"/>
      <stop offset="0.6387" stop-color="#fff" stop-opacity="0.496"/>
      <stop offset="0.6886" stop-color="#fff" stop-opacity="0.75"/>
    </linearGradient>
  </defs>
  <g>
    <g>
      <path class="cls-1" d="M190.0615,278.4456l97.5235-48.7617a65.256,65.256,0,0,1,58.3677,0l76.403,38.2014V93.9139a90,90,0,0,0-90-90H90a90,90,0,0,0-90,90L.0015,215.0892Z"/>
      <path class="cls-2" d="M422.3557,267.8853l-76.403-38.2014a65.256,65.256,0,0,0-58.3677,0l-97.5235,48.7617,230.2913,76.7637a90.3407,90.3407,0,0,0,2.0029-18.94Z"/>
      <path class="cls-3" d="M.0015,215.0892V336.39A89.72,89.72,0,0,0,26.4,399.9479l.0284.0276q.75.748,1.5166,1.4792l.0159.0149q.7731.7357,1.5632,1.4536c.021.0188.0425.0371.0634.0562q.7677.6957,1.5506,1.3745c.0388.0334.0787.0656.1176.0991q.7585.6544,1.5306,1.293c.0572.0471.1159.0925.1732.1394q.749.6141,1.51,1.2146c.0614.0481.1245.0945.1861.1425q.7591.593,1.53,1.1714c.0626.0469.1269.0918.19.1385.5156.383,1.0341.7629,1.5582,1.1352.0694.0493.14.0965.21.1455q.7785.55,1.5673,1.0855c.1031.07.2083.136.3117.2053.4965.332.9944.6623,1.4979.9849.1136.0727.23.142.3436.2143.4961.3147.9933.6279,1.4958.9329.1243.0754.2511.1472.3758.2221.4956.2977.9919.594,1.4936.8824.1221.07.2464.1364.3688.206.5075.2886,1.0159.5755,1.5295.8543.1214.0659.245.1281.3668.1936.5171.2776,1.0351.5534,1.5582.8213.1516.0776.3059.1508.458.2277.4956.25.9913.5,1.492.7408.2126.1023.4286.1989.6421.3.4444.2094.8882.4209,1.3366.6235.2208.1.4447.1934.6664.2915.4458.197.8906.3958,1.34.5857.1981.0837.3991.1619.5979.2444.4763.1973.9522.3955,1.4328.5847.21.083.4238.16.635.2415.4716.1816.9426.3647,1.4179.5385.2436.0891.49.1719.7349.2588.4473.1594.8937.3208,1.3442.4732.24.0813.4839.1562.7252.2353.4578.1507.9146.303,1.3756.4463.2619.0816.5269.156.79.2351.4439.1336.8866.2693,1.3334.3963.2732.0776.5494.1479.8236.2229.44.12.8789.2434,1.3217.3571.3072.0791.6176.15.9262.2261.4124.1016.8234.2063,1.2381.302.3794.0874.7622.1663,1.1435.2488.3474.0754.6931.1553,1.042.2268.4.0818.8032.1545,1.2052.231.3337.0634.6658.1315,1.0008.1916.3743.0669.7519.1245,1.1278.1868.3659.06.73.1255,1.0977.1816.37.0567.7437.1043,1.1156.156.3754.0528.7493.11,1.1262.1577.3788.0479.76.0869,1.1408.13.3732.0425.745.09,1.12.1277.4074.0413.8176.073,1.2265.1091.35.0305.6981.0664,1.0491.093.4351.033.873.0559,1.31.083.3278.02.6543.0455.9831.0623.6012.03,1.205.05,1.8092.0686.1661.0051.3311.0147.4974.0188q1.1577.0292,2.3225.03H332.3559c1.2312,0,2.4548-.0317,3.674-.0808.1857-.0073.3721-.0124.5576-.021q1.7406-.0805,3.4629-.229.327-.0278.6535-.0581,1.7274-.1588,3.4366-.3791c.1615-.0213.322-.0457.4834-.0676,1.1591-.1582,2.3125-.334,3.4572-.5359.0454-.0081.0914-.0144.1368-.0227,1.1616-.2066,2.3134-.4412,3.4592-.6919.1814-.04.3634-.0777.5444-.1184q1.6546-.3729,3.2855-.8072.2905-.0773.58-.157,1.653-.45,3.2819-.9585c.1154-.0363.23-.0751.3448-.112q1.644-.5241,3.261-1.1069c.061-.0223.1228-.0428.1837-.0647,1.0887-.3968,2.1654-.8179,3.2341-1.2549.1583-.065.3172-.1287.4751-.1944q1.56-.6481,3.09-1.3535c.153-.07.3052-.1423.4577-.2136q1.5681-.7332,3.1051-1.52c.0536-.0276.1065-.0569.16-.0845q1.5675-.812,3.0987-1.6829c.0525-.03.1058-.0585.1582-.0883q1.5137-.8651,2.9878-1.7893c.1215-.076.2435-.1512.3647-.2276q1.4518-.9159,2.8665-1.884c.1-.0686.199-.1382.2987-.2073q2.9753-2.0562,5.7743-4.3389c.0312-.0253.063-.05.0942-.0759q1.3739-1.125,2.7-2.3042.1178-.1039.2354-.2087,1.3188-1.1773,2.5916-2.4041c.0453-.0439.09-.0881.1351-.1318q2.6429-2.5628,5.0736-5.3333l.0293-.0329q1.2-1.3707,2.3435-2.791c.04-.05.08-.0992.12-.149q1.1469-1.4274,2.2378-2.9013l.0019-.0027a90.0958,90.0958,0,0,0,6.1114-9.4607l.04-.072a89.551,89.551,0,0,0,6.2534-13.7964l.0064-.0181a89.3519,89.3519,0,0,0,3.1484-11.1245l.0005-.0022-230.291-76.7615Z"/>
      <path class="cls-4" d="M332.3558,3.9139H90a90,90,0,0,0-90,90v75.1817H422.3558V93.9139A90,90,0,0,0,332.3558,3.9139Z"/>
    </g>
    <g>
      <path d="M624.8312,89.9v98.02h147.32v74.82h-147.32v152.541H531.45V15.08H781.4308V89.9Z"/>
      <path d="M961.8048,421.6611c-90.48,0-158.9209-56.2607-158.9209-148.48S871.3243,124.12,961.8048,124.12s158.34,56.84,158.34,149.0606S1052.2853,421.6611,961.8048,421.6611Zm0-224.4609c-41.1807,0-64.9609,31.9-64.9609,74.24s23.78,74.24,64.9609,74.24c40.6,0,64.96-31.9,64.96-74.24S1002.4044,197.2,961.8048,197.2Z"/>
      <path d="M1167.7,415.2812V15.08h92.8V415.2812Z"/>
      <path d="M1371.2765,96.28c-31.3193,0-52.7793-19.1407-52.7793-48.1407,0-28.42,21.46-48.14,52.7793-48.14s52.78,19.72,52.78,48.14C1424.0568,77.14,1402.5968,96.28,1371.2765,96.28Zm-46.3994,319.0009V129.34h92.8V415.2812Z"/>
      <path d="M1622.4113,421.6611c-90.48,0-158.9209-56.2607-158.9209-148.48s68.44-149.0606,158.9209-149.0606,158.34,56.84,158.34,149.0606S1712.8917,421.6611,1622.4113,421.6611Zm0-224.4609c-41.1807,0-64.961,31.9-64.961,74.24s23.78,74.24,64.961,74.24c40.6,0,64.96-31.9,64.96-74.24S1663.0109,197.2,1622.4113,197.2Z"/>
    </g>
  </g>
</svg>
