<svg id="_ÎÓÈ_1" data-name="—ÎÓÈ_1" xmlns="http://www.w3.org/2000/svg" width="3277.6954" height="2751.8476" viewBox="0 0 3277.6954 2751.8476">
  <defs>
    <style>
      .cls-1 {
        fill: none;
      }
    </style>
  </defs>
  <rect class="cls-1" x="-277.6402" y="-1944.2968" width="4752.9414" height="4752.9394"/>
  <g>
    <path d="M3195.36,1293.5937H1072.9551a380.2227,380.2227,0,0,1,0,164.669H3195.36a82.3345,82.3345,0,1,0,0-164.669Z"/>
    <path d="M325.919,1293.5937H82.335a82.3345,82.3345,0,1,0,0,164.669H325.919a380.2227,380.2227,0,0,1,0-164.669Z"/>
    <path d="M3195.36,300.2051H2989.85a380.3045,380.3045,0,0,1,0,164.6689H3195.36a82.3345,82.3345,0,1,0,0-164.6689Z"/>
    <path d="M2242.8174,300.2051H82.335a82.3345,82.3345,0,1,0,0,164.6689H2242.8174a380.3045,380.3045,0,0,1,0-164.6689Z"/>
    <path d="M3195.36,2286.9726H2298.462a380.1079,380.1079,0,0,1,0,164.67H3195.36a82.335,82.335,0,0,0,0-164.67Z"/>
    <path d="M1551.4258,2286.9726H82.335a82.335,82.335,0,0,0,0,164.67H1551.4258a380.2272,380.2272,0,0,1,0-164.67Z"/>
    <path d="M2989.85,300.2051C2952.0772,128.7256,2798.9952,0,2616.3331,0S2280.59,128.7256,2242.8174,300.2051a380.3045,380.3045,0,0,0,0,164.6689c37.7725,171.48,190.8545,300.2051,373.5157,300.2051S2952.0772,636.3535,2989.85,464.874a380.3045,380.3045,0,0,0,0-164.6689ZM2616.3331,600.41c-120.13,0-217.8653-97.7363-217.8653-217.87s97.7354-217.8711,217.8653-217.8711c120.1347,0,217.8662,97.7363,217.8662,217.8711S2736.4678,600.41,2616.3331,600.41Z"/>
    <path d="M1072.9551,1293.5937c-37.7734-171.4795-190.8535-300.2011-373.5176-300.2011S363.6934,1122.1142,325.919,1293.5937a380.2227,380.2227,0,0,0,0,164.669c37.7744,171.4785,190.8535,300.205,373.5185,300.205s335.7442-128.7265,373.5176-300.205a380.2227,380.2227,0,0,0,0-164.669ZM699.4375,1593.7978c-120.1328,0-217.87-97.7353-217.87-217.87,0-120.1289,97.7373-217.8652,217.87-217.8652s217.87,97.7363,217.87,217.8652C917.3077,1496.0625,819.5713,1593.7978,699.4375,1593.7978Z"/>
    <path d="M2298.462,2286.9726c-37.7764-171.4785-190.8536-300.205-373.5205-300.205-182.6622,0-335.7413,128.7265-373.5157,300.205a380.2272,380.2272,0,0,0,0,164.67c37.7744,171.4785,190.8535,300.205,373.5157,300.205,182.6669,0,335.7441-128.7265,373.5205-300.205a380.1079,380.1079,0,0,0,0-164.67Zm-373.5205,300.2051c-120.13,0-217.8653-97.7363-217.8653-217.87s97.7354-217.87,217.8653-217.87c120.1386,0,217.875,97.7353,217.875,217.87S2045.08,2587.1777,1924.9415,2587.1777Z"/>
  </g>
</svg>
