<svg id="Layer_1" data-name="Layer 1" xmlns="http://www.w3.org/2000/svg" width="189.9466" height="189.9544" viewBox="0 0 189.9466 189.9544">
  <path d="M173.2873,89.2747l-24.0021,28.0938L94.9722,180.923,16.66,89.2717A49.0307,49.0307,0,0,1,24.8822,18.097,47.5824,47.5824,0,0,1,50.6485,9.103c.9507-.0477,1.9193-.0716,2.8789-.0716A56.264,56.264,0,0,1,94.9722,27.1865,56.27,56.27,0,0,1,136.42,9.0314c.9566,0,1.9252.0239,2.8788.0745h.003A47.5573,47.5573,0,0,1,165.0651,18.1a49.0307,49.0307,0,0,1,8.2222,71.1747Z"/>
</svg>
