<svg id="Layer_1" data-name="Layer 1" xmlns="http://www.w3.org/2000/svg" width="1800" height="1068.75" viewBox="0 0 1800 1068.75">
  <defs>
    <style>
      .cls-1 {
        fill: #fff;
      }
    </style>
  </defs>
  <path class="cls-1" d="M1458.5176,338.3789C1431.5322,147.3813,1267.08,0,1068.75,0,899.2578,0,754.4043,107.68,699.06,258.1787A279.4516,279.4516,0,0,0,566.7842,225c-155.0718,0-281.25,126.1782-281.25,281.25l.0273.22c-1.4551,0-2.8564-.22-4.3115-.22C126.1782,506.25,0,632.4287,0,787.5c0,155.1,126.1782,281.25,281.25,281.25h562.5V787.4863l-177.4976-.0136c-33.22,0-43.4506-21.2442-22.6733-47.1866l246.78-308.4541c20.7773-25.997,54.7676-25.997,75.5029,0l246.8086,308.4825c20.7773,25.872,10.5742,47.1855-22.7012,47.1855l-177.47-.0137V1068.75h421.875c201.5859,0,365.625-164.0264,365.625-365.625C1800,509.6553,1648.9111,350.876,1458.5176,338.3789Z"/>
</svg>
